<svg viewBox="0 0 896 504" height="504" width="896" xmlns="http://www.w3.org/2000/svg" version="1.1"><rect x="0" y="0" width="896" height="504" fill="#CFC6F7"></rect><g transform-origin="448 252" transform="scale(1, 1)"><linearGradient id="linear-gradient-r5"><stop offset="0%" stop-color="#E1F7AC" stop-opacity="100%"></stop><stop offset="100%" stop-color="#BAF7BA" stop-opacity="100%"></stop></linearGradient><filter id="shadow-r5" x="-20%" width="150%" y="-20%" height="150%"><feDropShadow dx="0" dy="0" stdDeviation="10" flood-color="#00000061"></feDropShadow></filter><path d="M0 0 0,471.6553478762507 C 39.77358337131639,449.0978616723169 120.59136600221196,406.9224355774621 198.86791685658196,358.867916856582 C 277.144467710952,310.81339813570185 338.2537086498303,303.15633764316635 391.38275427185,231.38275427185 C 444.5117998938697,159.60917090053357 449.8870668277144,46.276550854369994 464.5131449666805,0 L0 0Z" fill="none" stroke-linecap="round" filter="url(#shadow-r5)" stroke-width="1" style="transition: all 0.4s cubic-bezier(0.16, 1, 0.3, 1) 0s; fill: url(&quot;#linear-gradient-r5&quot;);"></path></g><g transform-origin="448 252" transform="scale(-1, -1)"><linearGradient id="linear-gradient-r5"><stop offset="0%" stop-color="#E1F7AC" stop-opacity="100%"></stop><stop offset="100%" stop-color="#BAF7BA" stop-opacity="100%"></stop></linearGradient><filter id="shadow-r5" x="-20%" width="150%" y="-20%" height="150%"><feDropShadow dx="0" dy="0" stdDeviation="10" flood-color="#00000061"></feDropShadow></filter><path d="M0 0 0,464.5131449666805 C 49.49995305060098,453.11046902394537 190.1169869398698,475.0196159332059 247.4997652530049,407.4997652530049 C 304.88254356614004,339.9799145728039 245.3668645670948,208.41384461627655 286.91389156567556,126.91389156567554 C 328.4609185642563,45.41393851507455 421.570698509862,25.382778313135123 455.2349002459086,0 L0 0Z" fill="none" stroke-linecap="round" filter="url(#shadow-r5)" stroke-width="1" style="transition: all 0.4s cubic-bezier(0.16, 1, 0.3, 1) 0s; fill: url(&quot;#linear-gradient-r5&quot;);"></path></g></svg>